<svg id="repono" xmlns="http://www.w3.org/2000/svg" viewBox="0 0 1150 325">
  <defs>
    <style>
      .cls-1 {
        fill: #fff;
      }
    </style>
  </defs>
  <g id="fehér_töltés_háttér_nélkül" data-name="fehér töltés háttér nélkül">
    <path class="cls-1" d="M212.4,224.5h-25l12.3,24.6H150.6c-4.1-8-8.2-16.2-12.3-24.4H112.8v24.4h-49V75.9H212.4Zm-49.3-49.4V125H113v50.1Z"/>
    <path class="cls-1" d="M413.7,249.2V75.9H562.3V224.4H462.6v24.8ZM513,125H462.9v50.2H513Z"/>
    <path class="cls-1" d="M588.6,75.8H737.2V224.2H588.6Zm99.3,99.3V124.9H637.7v50.2Z"/>
    <path class="cls-1" d="M938.5,75.8H1087V224.2H938.5Zm49.1,49.1v50.2h50.1V124.9Z"/>
    <path class="cls-1" d="M387.4,175.3v48.9H238.8V75.8H387.3v48.8H287.9v13.3h49.4V162H288v13.3Z"/>
    <path class="cls-1" d="M763.5,75.8H912.1V224.2H863.2V124.9H812.5v99.3h-49Z"/>
  </g>
</svg>
