<svg id="repono" xmlns="http://www.w3.org/2000/svg" viewBox="0 0 1150 325">
  <defs>
    <style>
      .cls-1 {
        fill: #fff;
      }
    </style>
  </defs>
  <g id="fehér_töltés_fekete_háttér" data-name="fehér töltés fekete háttér">
    <path d="M0,325V0H1150V325ZM212.4,224.5V75.9H63.9V249.1h48.9V224.7h25.5l12.3,24.4h49.1l-12.3-24.6Zm201.3,24.7h49V224.4h99.6V75.9H413.7ZM588.6,75.8V224.2H737.2V75.8Zm349.9,0V224.2H1087V75.8ZM387.4,175.3H288V162h49.4V137.9H287.9V124.6h99.4V75.8H238.8V224.2H387.4ZM763.6,75.8V224.2h48.9V124.9h50.7v99.3h48.9V75.8Z"/>
    <path class="cls-1" d="M212.4,224.5h-25l12.3,24.6H150.6l-12.3-24.4H112.8v24.4H63.9V75.9H212.4Zm-49.2-49.4V125H113v50.1Z"/>
    <path class="cls-1" d="M413.7,249.2V75.9H562.3V224.4H462.7v24.8ZM513,125H462.9v50.2H513Z"/>
    <path class="cls-1" d="M588.6,75.8H737.2V224.2H588.6Zm99.3,99.3V124.9H637.8v50.2Z"/>
    <path class="cls-1" d="M938.5,75.8H1087V224.2H938.5Zm49.1,49.1v50.2h50.2V124.9Z"/>
    <path class="cls-1" d="M387.4,175.3v48.9H238.8V75.8H387.3v48.8H287.9v13.3h49.5V162H288v13.3Z"/>
    <path class="cls-1" d="M763.6,75.8H912.1V224.2H863.2V124.9H812.5v99.3H763.6Z"/>
    <path d="M163.2,175.1H113V125h50.2Z"/>
    <path d="M513,125v50.2H462.9V125Z"/>
    <path d="M687.9,175.1H637.8V124.9h50.1Z"/>
    <path d="M987.6,124.9h50.2v50.2H987.6Z"/>
  </g>
</svg>
